# Blender v2.76 (sub 0) OBJ File: ''
# www.blender.org
mtllib table1.mtl
o Plane
v 0.359118 -0.482065 0.359118
v -0.359118 -0.482065 0.359118
v -0.359118 -0.482065 -0.359118
v 0.359118 -0.482065 -0.359118
v 0.359118 -0.396196 -0.359118
v -0.359118 -0.396196 -0.359118
v -0.089004 -0.331794 -0.089004
v 0.089004 -0.331794 -0.089004
v 0.359118 -0.396196 0.359118
v -0.359118 -0.396196 0.359118
v -0.089004 -0.331794 0.089004
v -0.083804 0.189520 0.083804
v -0.083804 0.189520 -0.083804
v 0.089004 -0.331794 0.089004
v 0.083804 0.189520 -0.083804
v -0.382517 0.236090 -0.382517
v 0.382517 0.236090 -0.382517
v 0.083804 0.189520 0.083804
v -0.382517 0.300125 -0.382517
v 0.382517 0.300125 -0.382517
v 0.382517 0.236090 0.382517
v -0.382517 0.236090 0.382517
v 0.382517 0.757166 0.382517
v -0.382517 0.757166 0.382517
v 0.329888 0.725725 0.329889
v -0.329888 0.725725 0.329889
v 0.329888 0.331566 -0.329888
v -0.329888 0.331566 -0.329888
v 0.329888 0.698950 0.345884
v -0.329888 0.698950 0.345884
v 0.329888 0.304791 -0.313893
v -0.329888 0.304791 -0.313893
v 0.290303 0.757166 0.382517
v 0.272545 -0.396196 0.359118
v 0.272545 -0.482065 -0.359118
v 0.063601 0.189520 -0.083804
v 0.272545 -0.396196 -0.359118
v 0.290303 0.300125 -0.382517
v 0.063601 0.189520 0.083804
v 0.067548 -0.331794 0.089004
v 0.067548 -0.331794 -0.089004
v 0.290303 0.236090 0.382517
v 0.290303 0.236090 -0.382517
v 0.272545 -0.482065 0.359118
v 0.250362 0.725725 0.329889
v 0.250362 0.331566 -0.329888
v 0.250362 0.698950 0.345884
v 0.250362 0.304791 -0.313893
v -0.382517 0.236090 0.268638
v -0.089004 -0.331794 0.062507
v -0.083804 0.189520 0.058855
v 0.382517 0.689133 0.268638
v -0.359118 -0.482065 0.252205
v 0.359118 -0.482065 0.252205
v 0.382517 0.236090 0.268638
v 0.083804 0.189520 0.058855
v -0.382517 0.689133 0.268638
v -0.359118 -0.396196 0.252205
v 0.359118 -0.396196 0.252205
v 0.089004 -0.331794 0.062507
v 0.329888 0.667053 0.231677
v -0.329888 0.667053 0.231677
v 0.329888 0.640277 0.247673
v -0.329888 0.640277 0.247673
v 0.250362 0.640277 0.247673
v 0.272545 -0.482065 0.252205
v 0.335700 0.768804 0.235224
v 0.335700 0.769015 0.339991
v 0.244551 0.769015 0.339991
v 0.244551 0.768804 0.235224
v 0.326957 0.768824 0.245273
v 0.326957 0.768995 0.329943
v 0.253293 0.768995 0.329943
v 0.253293 0.768824 0.245273
v 0.326957 0.752603 0.245305
v 0.326957 0.752774 0.329975
v 0.253293 0.752774 0.329975
v 0.253293 0.752603 0.245305
v -0.231134 0.391489 -0.168770
v 0.220902 0.391489 -0.168770
v -0.231134 0.553580 0.102551
v 0.220902 0.553580 0.102551
v -0.231134 0.410170 -0.179931
v 0.220902 0.410170 -0.179931
v -0.231134 0.572260 0.091391
v 0.220902 0.572260 0.091391
v -0.009230 0.410170 -0.179931
v -0.007738 0.572260 0.091391
v -0.007821 0.417823 -0.181506
v 0.220902 0.423242 -0.188555
v -0.231134 0.423242 -0.188555
v -0.231134 0.585333 0.082767
v 0.220902 0.585333 0.082767
v -0.006329 0.579914 0.089816
v -0.135033 0.456150 -0.200765
v -0.133870 0.618353 0.070491
v 0.119167 0.618817 0.070221
v 0.117277 0.456985 -0.201250
vt 1.839186 0.799753
vt 1.020778 0.799753
vt 1.020778 0.007698
vt 1.839186 0.007698
vt 1.018816 0.145583
vt 1.018817 0.963992
vt 0.659036 0.614021
vt 0.659036 0.411187
vt 2.687461 0.310757
vt 2.687460 1.129166
vt 2.576205 1.129166
vt 2.576206 0.310757
vt 2.687463 -0.844153
vt 2.687463 -0.731986
vt 2.576207 -0.731986
vt 2.576207 -0.844154
vt 2.687459 1.921222
vt 2.687459 2.059743
vt 2.576203 2.059743
vt 2.576204 1.921221
vt 2.687463 -0.593465
vt 2.687461 0.198589
vt 2.576206 0.198589
vt 2.576207 -0.593465
vt -1.180180 -0.531269
vt -1.178594 -0.559387
vt -0.625674 -0.522664
vt -0.615351 -0.493567
vt 0.082398 0.119694
vt 0.088595 0.007698
vt 0.428489 0.377013
vt 0.426954 0.404770
vt 0.227065 0.985883
vt 0.088597 0.989712
vt 0.428490 0.620396
vt 0.462808 0.619447
vt 0.227063 0.011526
vt 1.018816 0.033415
vt 0.659036 0.383387
vt 0.462807 0.377961
vt -0.562675 -0.032864
vt -0.541072 -0.273302
vt 0.035218 -0.446866
vt -0.062175 0.290541
vt -1.270558 -0.168352
vt -1.230511 -0.259675
vt -0.565344 -0.002841
vt -0.693899 0.224027
vt -1.222617 -0.280337
vt -1.195152 -0.404173
vt -1.297412 -0.129160
vt -1.285337 -0.146894
vt -0.710985 0.257150
vt -0.739981 0.265418
vt 0.711308 -1.662561
vt 1.583035 -1.662561
vt 1.583035 -1.579595
vt 0.711307 -1.579595
vt -0.412262 0.782598
vt -0.480590 0.766827
vt -0.504295 -0.985472
vt -0.438942 -0.875178
vt -0.047419 0.384545
vt -0.388274 0.688852
vt 0.209051 0.005737
vt 0.037179 0.005737
vt 0.116608 -0.062451
vt 0.264834 -0.062451
vt -0.518855 -1.662561
vt -0.399379 -1.662561
vt -0.399379 -0.987433
vt -0.518855 -0.987433
vt 2.426696 -1.662561
vt 2.574242 -1.662561
vt 2.574243 -0.987436
vt 2.426697 -1.075581
vt -0.251832 -1.662561
vt 0.591832 -1.662561
vt 0.591832 -1.579595
vt -0.251832 -1.075579
vt 0.826672 2.019331
vt 1.578477 2.019333
vt 1.578476 2.059743
vt 0.826672 2.059741
vt 0.209049 -0.985472
vt 1.191806 -0.985472
vt 1.112377 -0.917284
vt 0.264831 -0.917285
vt 0.037180 -0.865997
vt 0.037179 -0.985472
vt 0.116608 -0.917285
vt 0.116608 -0.814248
vt 1.191807 -0.865996
vt 1.191807 0.005735
vt 1.112378 -0.062452
vt 1.112377 -0.814246
vt -0.394826 1.639393
vt -1.242365 1.639393
vt -1.023341 1.511442
vt -0.613850 1.511442
vt -0.375167 2.019329
vt -0.272130 2.019329
vt -0.272130 2.059739
vt -0.375167 2.059739
vt 2.426018 2.019333
vt 2.574243 2.019333
vt 2.574243 2.059743
vt 2.426018 2.059743
vt -0.123908 2.019329
vt 0.723634 2.019331
vt 0.723634 2.059741
vt -0.123908 2.059739
vt -1.126952 2.019329
vt -1.126952 2.059738
vt -1.242365 0.784559
vt -0.394826 0.784558
vt -0.394826 0.887597
vt -1.242365 0.887597
vt -1.390589 -1.662561
vt -1.390589 -0.987433
vt -0.947034 0.309003
vt -1.390589 0.678828
vt -1.390589 0.003104
vt 0.037179 0.936852
vt 0.415746 0.607295
vt 2.687464 -1.662561
vt 2.576209 -1.662561
vt 1.951354 0.799753
vt 1.951354 0.007698
vt 1.951354 0.938274
vt 1.839186 0.938274
vt -0.392865 0.886574
vt -0.301921 0.784558
vt -0.195573 0.911615
vt -0.260344 0.976133
vt -1.390589 0.887597
vt -1.390589 1.639393
vt 1.020778 0.938274
vt -0.189498 0.921042
vt -0.248750 0.984349
vt -0.105808 0.791981
vt 0.021015 0.818801
vt -0.013086 0.929124
vt -0.098051 0.888236
vt -0.392865 1.078929
vt -0.274537 1.105706
vt -0.100656 0.897631
vt -0.102828 0.916075
vt -0.180909 0.934881
vt -0.024148 0.933653
vt -0.258248 1.090665
vt 1.303470 -0.213011
vt 1.193768 -0.213011
vt 1.193768 -0.308454
vt 1.303470 -0.308454
vt -0.231992 0.991429
vt -0.242648 1.092070
vt -0.031478 0.949364
vt 1.469949 0.940235
vt 1.469949 1.599755
vt 1.436854 1.573914
vt 1.436170 1.256422
vt 1.439096 0.981750
vt -1.023342 0.925766
vt -0.613850 0.925766
vt 1.708396 -0.964730
vt 1.744135 -0.616865
vt 1.731450 -0.620227
vt 1.664141 -0.795821
vt 1.681464 -0.941220
vt 1.021185 1.000221
vt 1.054414 1.026013
vt 1.020778 1.659088
vt 1.051635 1.617604
vt 1.054841 1.335017
vt 1.285766 -0.985472
vt 1.308190 -0.963294
vt 1.305423 -0.826732
vt 1.208124 -0.632781
vt 1.311548 -0.447128
vt 1.631147 -0.452404
vt 1.648859 -0.332339
vt 1.297903 -0.329193
vt 1.193768 -0.630004
vt 1.281519 -0.310414
vt 1.664889 -0.310414
vn 0.000000 -1.000000 -0.000000
vn 0.000000 0.972700 -0.231900
vn 0.000000 0.000000 -1.000000
vn 0.000000 0.000000 1.000000
vn -1.000000 0.000000 0.000000
vn 1.000000 0.000000 0.000000
vn -1.000000 0.010000 0.000000
vn 0.000000 0.972700 0.231900
vn -0.231900 0.972700 0.000000
vn 0.231900 0.972700 0.000000
vn 0.000000 -0.988100 -0.154000
vn 1.000000 0.010000 0.000000
vn 0.000000 0.010000 -1.000000
vn 0.000000 0.010000 1.000000
vn 0.000000 -0.988100 0.154000
vn -0.154000 -0.988100 0.000000
vn 0.154000 -0.988100 0.000000
vn 0.000000 0.858500 -0.512900
vn 0.000000 0.512900 0.858500
vn 0.000000 -0.512900 -0.858500
vn 0.000000 -0.096400 -0.995300
vn 0.000000 1.000000 -0.002000
vn 0.000000 0.083800 0.996500
vn -0.998200 -0.056900 0.016500
vn 0.998200 -0.056900 0.016500
vn 0.000000 0.002000 1.000000
vn 0.000000 -0.002000 -1.000000
vn -0.015000 -0.416400 -0.909000
vn -0.328700 0.811900 -0.482500
vn -0.336800 0.808500 -0.482500
vn 0.015100 0.415700 0.909400
vn -0.015300 0.414300 0.910000
vn 0.015400 -0.414000 -0.910200
vn 0.318800 0.812900 -0.487400
vn 0.325300 0.811500 -0.485400
usemtl Material
s off
f 66/1/1 53/2/1 3/3/1 35/4/1
f 37/5/2 6/6/2 7/7/2 41/8/2
f 35/9/3 3/10/3 6/11/3 37/12/3
f 44/13/4 1/14/4 9/15/4 34/16/4
f 53/17/5 2/18/5 10/19/5 58/20/5
f 54/21/6 4/22/6 5/23/6 59/24/6
f 50/25/7 11/26/7 12/27/7 51/28/7
f 34/29/8 9/30/8 14/31/8 40/32/8
f 58/33/9 10/34/9 11/35/9 50/36/9
f 59/37/10 5/38/10 8/39/10 60/40/10
f 36/41/11 13/42/11 16/43/11 43/44/11
f 60/45/12 8/46/12 15/47/12 56/48/12
f 41/49/13 7/50/13 13/42/13 36/41/13
f 40/51/14 14/52/14 18/53/14 39/54/14
f 43/55/3 16/56/3 19/57/3 38/58/3
f 39/54/15 18/53/15 21/59/15 42/60/15
f 51/28/16 12/27/16 22/61/16 49/62/16
f 56/48/17 15/47/17 17/63/17 55/64/17
f 57/65/18 24/66/18 26/67/18 62/68/18
f 42/69/4 21/70/4 23/71/4 33/72/4
f 49/73/5 22/74/5 24/75/5 57/76/5
f 55/77/6 17/78/6 20/79/6 52/80/6
f 46/81/19 28/82/19 32/83/19 48/84/19
f 52/85/18 20/86/18 27/87/18 61/88/18
f 33/89/18 23/90/18 25/91/18 45/92/18
f 38/93/18 19/94/18 28/95/18 46/96/18
f 32/97/18 64/98/18 81/99/18 79/100/18
f 45/101/20 25/102/20 29/103/20 47/104/20
f 62/105/6 26/106/6 30/107/6 64/108/6
f 61/109/5 27/110/5 31/111/5 63/112/5
f 26/113/20 45/101/20 47/104/20 30/114/20
f 63/115/18 31/116/18 48/117/18 65/118/18
f 20/86/18 38/93/18 46/96/18 27/87/18
f 24/66/18 33/89/18 45/92/18 26/67/18
f 27/110/19 46/81/19 48/84/19 31/111/19
f 22/119/4 42/69/4 33/72/4 24/120/4
f 12/121/15 39/54/15 42/60/15 22/122/15
f 17/78/3 43/55/3 38/58/3 20/79/3
f 11/123/14 40/51/14 39/54/14 12/121/14
f 8/46/13 41/49/13 36/41/13 15/47/13
f 15/47/11 36/41/11 43/44/11 17/63/11
f 10/124/8 34/29/8 40/32/8 11/125/8
f 2/126/4 44/13/4 34/16/4 10/127/4
f 4/22/3 35/9/3 37/12/3 5/23/3
f 5/38/2 37/5/2 41/8/2 8/39/2
f 54/128/1 66/1/1 35/4/1 4/129/1
f 1/130/1 44/131/1 66/1/1 54/128/1
f 63/132/21 65/133/21 70/134/21 67/135/21
f 25/102/5 61/109/5 63/112/5 29/103/5
f 28/82/6 62/105/6 64/108/6 32/83/6
f 47/136/18 65/118/18 64/98/18 30/137/18
f 23/90/18 52/85/18 61/88/18 25/91/18
f 21/70/6 55/77/6 52/80/6 23/71/6
f 16/56/5 49/73/5 57/76/5 19/57/5
f 19/94/18 57/65/18 62/68/18 28/95/18
f 18/53/17 56/48/17 55/64/17 21/59/17
f 13/42/16 51/28/16 49/62/16 16/43/16
f 14/52/12 60/45/12 56/48/12 18/53/12
f 9/30/10 59/37/10 60/40/10 14/31/10
f 6/6/9 58/33/9 50/36/9 7/7/9
f 7/50/7 50/25/7 51/28/7 13/42/7
f 1/14/6 54/21/6 59/24/6 9/15/6
f 3/10/5 53/17/5 58/20/5 6/11/5
f 44/131/1 2/138/1 53/2/1 66/1/1
f 67/135/22 70/134/22 74/139/22 71/140/22
f 47/141/23 29/142/23 68/143/23 69/144/23
f 65/133/24 47/141/24 69/144/24 70/134/24
f 29/145/25 63/132/25 67/135/25 68/146/25
f 74/139/6 73/147/6 77/148/6 78/149/6
f 69/144/22 68/143/22 72/150/22 73/147/22
f 70/134/22 69/144/22 73/147/22 74/139/22
f 68/146/22 67/135/22 71/140/22 72/151/22
f 76/152/22 75/153/22 78/154/22 77/155/22
f 72/151/5 71/140/5 75/156/5 76/157/5
f 71/140/26 74/139/26 78/149/26 75/156/26
f 73/147/27 72/150/27 76/158/27 77/148/27
f 81/159/19 82/160/19 86/161/19 88/162/19 85/163/19
f 64/98/18 65/118/18 82/164/18 81/99/18
f 48/117/18 32/97/18 79/100/18 80/165/18
f 65/118/18 48/117/18 80/165/18 82/164/18
f 84/166/28 87/167/28 89/168/28 98/169/28 90/170/28
f 79/171/5 81/159/5 85/163/5 83/172/5
f 82/160/6 80/173/6 84/174/6 86/161/6
f 80/173/20 79/171/20 83/172/20 87/175/20 84/174/20
f 86/176/6 84/166/6 90/170/6 93/177/6
f 97/178/29 98/169/29 89/168/29 94/179/29
f 96/180/30 95/181/30 91/182/30 92/183/30
f 88/184/31 86/176/31 93/177/31 97/178/31 94/179/31
f 85/185/32 88/184/32 94/179/32 96/180/32 92/183/32
f 83/186/5 85/185/5 92/183/5 91/182/5
f 87/167/33 83/186/33 91/182/33 95/181/33 89/168/33
f 94/179/34 89/168/34 95/181/34 96/180/34
f 93/177/35 90/170/35 98/169/35 97/178/35
