# Blender v2.76 (sub 0) OBJ File: ''
# www.blender.org
mtllib protego.mtl
o Plane
v -1.225465 1.050168 -0.433833
v -0.000000 1.050168 0.419358
v -0.000000 1.905099 0.206060
v -0.854932 1.050168 0.206060
v 0.854932 1.050168 0.206060
v 0.000000 0.195236 0.206060
v 0.000000 0.222078 -0.102761
v 1.225465 1.050168 -0.433832
v 0.000000 -0.175297 -0.433833
v -0.000000 2.275633 -0.433833
v 0.000000 -0.252297 -0.220535
v 1.302465 1.050168 -0.220535
v -1.302465 1.050168 -0.220535
v -0.000000 2.352633 -0.220535
v -0.000000 1.050168 0.228310
v -0.000000 1.878258 -0.102761
v -0.828090 1.050168 -0.102761
v 0.828090 1.050168 -0.102761
v -0.000000 2.333383 -0.380508
v 1.283215 1.050168 -0.380508
v 0.000000 -0.233047 -0.380508
v -1.283215 1.050168 -0.380508
v -0.000000 1.467600 0.366034
v 0.417432 1.050168 0.366034
v -0.000000 0.632736 0.366034
v -0.417432 1.050168 0.366034
v 0.641199 1.691367 0.206060
v -0.976849 2.027016 -0.220535
v -0.976848 0.073319 -0.220535
v 0.641199 0.408969 0.206060
v -0.000000 2.137789 -0.351065
v 1.087621 1.050168 -0.351065
v 0.000000 -0.037453 -0.351065
v -1.087621 1.050168 -0.351065
v -0.919099 1.969266 -0.433833
v -0.919098 0.131069 -0.433833
v 0.919099 0.131069 -0.433832
v 0.919099 1.969266 -0.433832
v 0.976848 2.027016 -0.220535
v -0.641199 1.691366 0.206060
v -0.641199 0.408969 0.206060
v 0.976849 0.073319 -0.220535
v 0.000000 -0.140414 -0.007237
v 1.190581 1.050168 -0.007237
v -1.190581 1.050168 -0.007237
v -0.000000 2.240749 -0.007237
v -0.000000 1.511048 0.145542
v 0.460880 1.050168 0.145542
v 0.000000 0.589288 0.145542
v -0.460880 1.050168 0.145542
v -0.621067 0.429100 -0.102761
v 0.621068 0.429100 -0.102761
v 0.621067 1.671235 -0.102761
v -0.621068 1.671235 -0.102761
v 0.962411 2.012579 -0.380508
v 0.962411 0.087757 -0.380508
v -0.962411 2.012579 -0.380508
v -0.962411 0.087757 -0.380508
v -0.375510 1.425678 0.324559
v 0.375510 1.425678 0.324559
v 0.375510 0.674658 0.324559
v -0.375510 0.674657 0.324559
v -0.815716 1.865884 -0.351065
v 0.815716 1.865884 -0.351065
v 0.815716 0.234452 -0.351065
v -0.815716 0.234452 -0.351065
v 0.892936 1.943104 -0.007237
v -0.892936 1.943104 -0.007237
v -0.892936 0.157232 -0.007237
v 0.892936 0.157232 -0.007237
v -0.388856 1.439023 0.081167
v 0.388856 1.439023 0.081167
v 0.388856 0.661312 0.081167
v -0.388856 0.661312 0.081167
vt -0.703807 0.979459
vt -0.335298 0.986644
vt -0.321244 1.017929
vt -0.715145 1.009295
vt -1.015363 0.754142
vt -0.984078 0.740088
vt -0.925180 0.713628
vt -0.682030 0.922155
vt -0.361758 0.927746
vt 0.519029 0.506357
vt 0.472272 0.635151
vt 0.357900 0.581655
vt 0.390235 0.459600
vt 0.443732 0.345229
vt 0.565786 0.377564
vt 0.680158 0.431060
vt 0.647823 0.553114
vt 0.594326 0.667486
vt 0.243100 0.406185
vt 0.106274 0.356512
vt 0.322420 0.085633
vt 0.386751 0.223296
vt 0.235968 0.638635
vt 0.098305 0.702966
vt 0.619202 0.230428
vt 0.668875 0.093603
vt 0.939753 0.309748
vt 0.802090 0.374080
vt 0.418856 0.782287
vt 0.369183 0.919112
vt 0.651307 0.789419
vt 0.715638 0.927081
vt 0.794958 0.606530
vt 0.931783 0.656203
vt -0.277762 0.637270
vt -0.268162 0.418468
vt -0.147640 0.364324
vt -0.153231 0.684596
vt -0.415901 0.807225
vt -0.466280 0.695083
vt -0.409116 0.587352
vt -0.380303 0.468846
vt -0.369013 0.098494
vt -0.737521 0.091309
vt -0.751575 0.060024
vt -0.357674 0.068658
vt -0.057458 0.323811
vt -0.088742 0.337865
vt -0.390790 0.155798
vt -0.711062 0.150206
vt -0.095928 0.706373
vt -0.066092 0.717712
vt -0.976892 0.371579
vt -1.006728 0.360241
vt -0.919589 0.393357
vt 0.007408 0.745643
vt 0.007408 0.294670
vt 1.030228 0.691942
vt 0.757918 1.017557
vt 1.030228 0.267468
vt -0.292103 1.082795
vt -0.329742 -0.004841
vt -0.780716 -0.004842
vt 0.333444 1.017557
vt 0.007830 0.745246
vt -0.743078 1.082795
vt 0.704614 -0.004842
vt 0.280140 -0.004842
vt -1.080228 0.783282
vt -1.080228 0.332309
vt 0.007830 0.320773
vt -0.536410 0.538976
vt -0.663703 0.490601
vt -0.606540 0.382869
vt -0.488034 0.411683
vt -0.584785 0.666270
vt -0.692517 0.609106
vt -0.795057 0.440682
vt -0.804658 0.659485
vt -0.656918 0.270728
vt -0.634704 0.797624
vt -0.438116 0.280329
vn -0.661700 -0.220600 -0.716600
vn -0.661700 0.220600 -0.716600
vn 0.507400 -0.169100 -0.845000
vn 0.507400 0.169100 -0.845000
vn 0.124300 0.124300 0.984400
vn -0.124300 0.124300 0.984400
vn -0.124300 -0.124300 0.984400
vn 0.124300 -0.124300 0.984400
vn -0.176000 0.528000 0.830800
vn -0.120200 0.325900 0.937700
vn 0.120200 0.325900 0.937700
vn 0.176000 0.528000 0.830800
vn -0.528000 -0.176000 0.830800
vn -0.325900 -0.120200 0.937700
vn -0.325900 0.120200 0.937700
vn -0.528000 0.176000 0.830800
vn 0.528000 0.176000 0.830800
vn 0.325900 0.120200 0.937700
vn 0.325900 -0.120200 0.937700
vn 0.528000 -0.176000 0.830800
vn 0.176000 -0.528000 0.830800
vn 0.120200 -0.325900 0.937700
vn -0.120200 -0.325900 0.937700
vn -0.176000 -0.528000 0.830800
vn -0.224600 0.673700 -0.704100
vn 0.224600 0.673700 -0.704100
vn 0.197100 0.522000 -0.829800
vn -0.197100 0.522000 -0.829800
vn 0.661700 0.220600 -0.716600
vn 0.661700 -0.220600 -0.716600
vn -0.507400 0.169100 -0.845000
vn -0.507400 -0.169100 -0.845000
vn 0.220600 -0.661700 -0.716600
vn -0.220600 -0.661700 -0.716600
vn 0.169100 0.507400 -0.845000
vn -0.169100 0.507400 -0.845000
vn -0.220600 0.661700 -0.716600
vn 0.220600 0.661700 -0.716600
vn -0.169100 -0.507400 -0.845000
vn 0.169100 -0.507400 -0.845000
vn 0.314200 -0.942600 -0.113400
vn 0.283100 -0.849300 0.445500
vn -0.283100 -0.849300 0.445500
vn -0.314200 -0.942600 -0.113400
vn 0.942600 0.314200 -0.113400
vn 0.849300 0.283100 0.445500
vn 0.849300 -0.283100 0.445500
vn 0.942600 -0.314200 -0.113400
vn -0.942600 -0.314200 -0.113400
vn -0.849300 -0.283100 0.445500
vn -0.849300 0.283100 0.445500
vn -0.942600 0.314200 -0.113400
vn -0.314200 0.942600 -0.113400
vn -0.283100 0.849300 0.445500
vn 0.283100 0.849300 0.445500
vn 0.314200 0.942600 -0.113400
vn -0.182800 -0.182800 -0.966000
vn -0.182800 0.182800 -0.966000
vn 0.182800 0.182800 -0.966000
vn 0.182800 -0.182800 -0.966000
vn 0.224600 -0.673600 -0.704100
vn -0.224600 -0.673700 -0.704100
vn -0.197100 -0.522000 -0.829800
vn 0.197100 -0.522000 -0.829800
vn 0.673700 0.224600 -0.704100
vn 0.673700 -0.224600 -0.704100
vn 0.522000 -0.197100 -0.829800
vn 0.522000 0.197100 -0.829800
vn -0.673700 -0.224600 -0.704100
vn -0.673700 0.224600 -0.704100
vn -0.522000 0.197100 -0.829800
vn -0.522000 -0.197100 -0.829800
usemtl None
s off
f 1/1/1 36/2/1 58/3/1 22/4/1
f 1/1/2 22/4/2 57/5/2 35/6/2
f 1/1/3 35/6/3 63/7/3 34/8/3
f 1/1/4 34/8/4 66/9/4 36/2/4
f 2/10/5 24/11/5 60/12/5 23/13/5
f 2/10/6 23/13/6 59/14/6 26/15/6
f 2/10/7 26/15/7 62/16/7 25/17/7
f 2/10/8 25/17/8 61/18/8 24/11/8
f 3/19/9 46/20/9 68/21/9 40/22/9
f 3/19/10 40/22/10 59/14/10 23/13/10
f 3/19/11 23/13/11 60/12/11 27/23/11
f 3/19/12 27/23/12 67/24/12 46/20/12
f 4/25/13 45/26/13 69/27/13 41/28/13
f 4/25/14 41/28/14 62/16/14 26/15/14
f 4/25/15 26/15/15 59/14/15 40/22/15
f 4/25/16 40/22/16 68/21/16 45/26/16
f 5/29/17 44/30/17 67/24/17 27/23/17
f 5/29/18 27/23/18 60/12/18 24/11/18
f 5/29/19 24/11/19 61/18/19 30/31/19
f 5/29/20 30/31/20 70/32/20 44/30/20
f 6/33/21 43/34/21 70/32/21 30/31/21
f 6/33/22 30/31/22 61/18/22 25/17/22
f 6/33/23 25/17/23 62/16/23 41/28/23
f 6/33/24 41/28/24 69/27/24 43/34/24
f 7/35/25 52/36/25 65/37/25 33/38/25
f 7/35/26 33/38/26 66/9/26 51/39/26
f 7/35/27 51/39/27 74/40/27 49/41/27
f 7/35/28 49/41/28 73/42/28 52/36/28
f 8/43/29 38/44/29 55/45/29 20/46/29
f 8/43/30 20/46/30 56/47/30 37/48/30
f 8/43/31 37/48/31 65/37/31 32/49/31
f 8/43/32 32/49/32 64/50/32 38/44/32
f 9/51/33 37/48/33 56/47/33 21/52/33
f 9/51/34 21/52/34 58/3/34 36/2/34
f 9/51/35 36/2/35 66/9/35 33/38/35
f 9/51/36 33/38/36 65/37/36 37/48/36
f 10/53/37 35/6/37 57/5/37 19/54/37
f 10/53/38 19/54/38 55/45/38 38/44/38
f 10/53/39 38/44/39 64/50/39 31/55/39
f 10/53/40 31/55/40 63/7/40 35/6/40
f 11/56/41 21/52/41 56/47/41 42/57/41
f 11/58/42 42/59/42 70/32/42 43/34/42
f 11/58/43 43/34/43 69/27/43 29/60/43
f 11/56/44 29/61/44 58/3/44 21/52/44
f 12/62/45 20/46/45 55/45/45 39/63/45
f 12/64/46 39/65/46 67/24/46 44/30/46
f 12/64/47 44/30/47 70/32/47 42/59/47
f 12/62/48 42/57/48 56/47/48 20/46/48
f 13/66/49 22/4/49 58/3/49 29/61/49
f 13/67/50 29/60/50 69/27/50 45/26/50
f 13/67/51 45/26/51 68/21/51 28/68/51
f 13/66/52 28/69/52 57/5/52 22/4/52
f 14/70/53 19/54/53 57/5/53 28/69/53
f 14/71/54 28/68/54 68/21/54 46/20/54
f 14/71/55 46/20/55 67/24/55 39/65/55
f 14/70/56 39/63/56 55/45/56 19/54/56
f 15/72/57 47/73/57 72/74/57 48/75/57
f 15/72/58 48/75/58 73/42/58 49/41/58
f 15/72/59 49/41/59 74/40/59 50/76/59
f 15/72/60 50/76/60 71/77/60 47/73/60
f 16/78/61 54/79/61 63/7/61 31/55/61
f 16/78/62 31/55/62 64/50/62 53/80/62
f 16/78/63 53/80/63 72/74/63 47/73/63
f 16/78/64 47/73/64 71/77/64 54/79/64
f 17/81/65 51/39/65 66/9/65 34/8/65
f 17/81/66 34/8/66 63/7/66 54/79/66
f 17/81/67 54/79/67 71/77/67 50/76/67
f 17/81/68 50/76/68 74/40/68 51/39/68
f 18/82/69 53/80/69 64/50/69 32/49/69
f 18/82/70 32/49/70 65/37/70 52/36/70
f 18/82/71 52/36/71 73/42/71 48/75/71
f 18/82/72 48/75/72 72/74/72 53/80/72
