# Blender v2.76 (sub 0) OBJ File: ''
# www.blender.org
mtllib table.mtl
o Plane
v 0.359118 -0.482065 0.359118
v 0.359118 -0.482065 -0.359118
v -0.359118 -0.482065 0.359118
v -0.359118 -0.482065 -0.359118
v -0.359118 -0.396196 0.359118
v 0.359118 -0.396196 0.359118
v 0.359118 -0.396196 -0.359118
v -0.359118 -0.396196 -0.359118
v -0.089004 -0.331794 0.089004
v 0.089004 -0.331794 0.089004
v 0.089004 -0.331794 -0.089004
v -0.089004 -0.331794 -0.089004
v -0.083804 0.189520 0.083804
v 0.083804 0.189520 0.083804
v 0.083804 0.189520 -0.083804
v -0.083804 0.189520 -0.083804
v -0.382517 0.236090 0.382517
v 0.382517 0.236090 0.382517
v 0.382517 0.236090 -0.382517
v -0.382517 0.236090 -0.382517
v -0.382517 0.757166 0.382517
v 0.382517 0.757166 0.382517
v 0.382517 0.300125 -0.382517
v -0.382517 0.300125 -0.382517
vt 0.839043 1.838999
vt 0.839333 1.001342
vt 1.676990 1.001631
vt 1.676700 1.839288
vt -0.023109 1.001342
vt 0.814547 1.001342
vt 0.499523 1.325197
vt 0.291916 1.325197
vt 0.680102 2.137688
vt -0.157555 2.137688
vt -0.157555 2.037541
vt 0.680101 2.037541
vt 2.355416 2.137687
vt 1.517759 2.137687
vt 1.517758 2.037541
vt 2.355416 2.037541
vt -0.995211 2.137688
vt -0.995211 2.037541
vt -0.372392 1.134876
vt -0.164785 1.134877
vt -0.164785 2.036196
vt -0.372392 2.036196
vt 0.790118 1.884964
vt -0.046260 1.838679
vt 0.286178 1.532725
vt 0.493468 1.544196
vt 0.837699 1.838678
vt 0.505261 1.532725
vt 0.542722 0.625527
vt 0.545215 0.417936
vt 0.924101 0.052460
vt 0.912720 0.999997
vt -0.787604 1.134876
vt -0.579998 1.134876
vt -0.579998 2.036196
vt -0.787604 2.036196
vt -0.995211 1.134876
vt -0.995211 2.036196
vt 0.899997 0.028357
vt -0.047610 0.028357
vt -0.047610 -0.050959
vt 0.899997 -0.050960
vt 0.332623 0.417935
vt 0.335115 0.625526
vt -0.034886 0.999994
vt -0.046260 0.052457
vt 0.337668 0.412950
vt -0.023231 0.029702
vt -0.995210 1.133532
vt -0.995211 0.029702
vt -0.047605 0.029702
vt -0.047605 1.133531
vt 2.795211 0.028356
vt 1.847605 0.028356
vt 1.847605 -0.617072
vt 2.795211 -0.617072
vt -0.995210 0.028358
vt -0.995211 -0.617067
vn 0.000000 -1.000000 0.000000
vn 0.000000 0.972700 -0.231900
vn 0.000000 0.000000 -1.000000
vn -0.000000 0.000000 1.000000
vn -1.000000 0.000000 -0.000000
vn 1.000000 0.000000 0.000000
vn -1.000000 0.010000 -0.000000
vn -0.000000 0.972700 0.231900
vn -0.231900 0.972700 -0.000000
vn 0.231900 0.972700 0.000000
vn 0.000000 -0.988100 -0.154000
vn 1.000000 0.010000 0.000000
vn 0.000000 0.010000 -1.000000
vn -0.000000 0.010000 1.000000
vn -0.000000 -0.988100 0.154000
vn -0.154000 -0.988100 -0.000000
vn 0.154000 -0.988100 0.000000
vn 0.000000 0.858500 -0.512900
usemtl None
s off
f 1/1/1 3/2/1 4/3/1 2/4/1
f 7/5/2 8/6/2 12/7/2 11/8/2
f 2/9/3 4/10/3 8/11/3 7/12/3
f 3/13/4 1/14/4 6/15/4 5/16/4
f 4/10/5 3/17/5 5/18/5 8/11/5
f 1/14/6 2/9/6 7/12/6 6/15/6
f 12/19/7 9/20/7 13/21/7 16/22/7
f 5/23/8 6/24/8 10/25/8 9/26/8
f 8/6/9 5/27/9 9/28/9 12/7/9
f 6/24/10 7/5/10 11/8/10 10/25/10
f 15/29/11 16/30/11 20/31/11 19/32/11
f 10/33/12 11/34/12 15/35/12 14/36/12
f 11/34/13 12/19/13 16/22/13 15/35/13
f 9/37/14 10/33/14 14/36/14 13/38/14
f 19/39/3 20/40/3 24/41/3 23/42/3
f 13/43/15 14/44/15 18/45/15 17/46/15
f 16/30/16 13/47/16 17/48/16 20/31/16
f 14/44/17 15/29/17 19/32/17 18/45/17
f 22/49/18 23/50/18 24/51/18 21/52/18
f 17/53/4 18/54/4 22/55/4 21/56/4
f 20/40/5 17/57/5 21/58/5 24/41/5
f 18/54/6 19/39/6 23/42/6 22/55/6
